<?xml version="1.0" encoding="iso-8859-1"?>
<!-- Uploaded to: SVG Repo, www.svgrepo.com, Generator: SVG Repo Mixer Tools -->
<svg fill="rgba(41, 38, 38, 0.886)" height="800px" width="800px" version="1.1" id="Layer_1" xmlns="http://www.w3.org/2000/svg" xmlns:xlink="http://www.w3.org/1999/xlink" 
	 viewBox="0 0 512 512" xml:space="preserve">
<g>
	<g>
		<path d="M299.116,64.674c-63.892,0-115.874,51.98-115.874,115.874s51.981,115.874,115.874,115.874s115.874-51.98,115.874-115.874
			S363.008,64.674,299.116,64.674z M299.116,280.253c-54.978,0-99.705-44.727-99.705-99.705s44.727-99.705,99.705-99.705
			s99.705,44.727,99.705,99.705S354.094,280.253,299.116,280.253z"/>
	</g>
</g>
<g>
	<g>
		<path d="M299.116,140.126c-22.289,0-40.421,18.132-40.421,40.421s18.132,40.421,40.421,40.421s40.421-18.132,40.421-40.421
			S321.404,140.126,299.116,140.126z M299.116,204.8c-13.372,0-24.253-10.879-24.253-24.253c0-13.373,10.88-24.253,24.253-24.253
			s24.253,10.879,24.253,24.253C323.368,193.921,312.488,204.8,299.116,204.8z"/>
	</g>
</g>
<g>
	<g>
		<path d="M431.604,441.937h-16.615V320.674c0-0.563-0.058-1.112-0.168-1.643c39.605-33.146,64.842-82.92,64.842-138.484
			C479.663,80.993,398.669,0,299.116,0S118.568,80.993,118.568,180.547c0,55.563,25.237,105.337,64.842,138.484
			c-0.11,0.53-0.168,1.08-0.168,1.643v44.885C121.783,327.03,83.363,260.516,80.964,187.793
			c18.367-3.803,32.215-20.105,32.215-39.582c0-22.289-18.132-40.421-40.421-40.421c-22.289,0-40.421,18.132-40.421,40.421
			c0,19.562,13.968,35.919,32.454,39.629c2.524,81.638,47.302,156.047,118.451,196.552v57.546h-16.615
			c-8.669,0-15.722,7.053-15.722,15.722v41.317c0,7.182,5.842,13.024,13.024,13.024h270.373c7.182,0,13.024-5.842,13.024-13.024
			v-41.317C447.326,448.99,440.274,441.937,431.604,441.937z M48.505,148.21c0-13.373,10.88-24.253,24.253-24.253
			c13.372,0,24.253,10.879,24.253,24.253c0,13.373-10.88,24.253-24.253,24.253C59.386,172.463,48.505,161.584,48.505,148.21z
			 M134.737,180.547c0-90.639,73.74-164.379,164.379-164.379s164.379,73.74,164.379,164.379s-73.74,164.379-164.379,164.379
			S134.737,271.186,134.737,180.547z M431.158,495.832H167.074v-37.726h163.182c4.465,0,8.084-3.62,8.084-8.084
			c0-4.465-3.62-8.084-8.084-8.084H199.411V330.989C228,350,262.284,361.095,299.116,361.095s71.116-11.095,99.705-30.106v110.948
			h-36.544c-4.465,0-8.084,3.62-8.084,8.084c0,4.465,3.62,8.084,8.084,8.084h68.881V495.832z"/>
	</g>
</g>
</svg>